<svg width="158" height="48" viewBox="0 0 158 48" fill="none" xmlns="http://www.w3.org/2000/svg">
<path fill-rule="evenodd" clip-rule="evenodd" d="M77.2532 12.2767L79.7502 14.6725L82.2472 12.2767L79.7502 9.88097L77.2532 12.2767Z" fill="white"/>
<path d="M54.1997 12.3295V29.1948H57.9664V22.7378H68.036V19.6298H57.9664V15.5821H69.0907V12.3295H54.1997Z" fill="white"/>
<path d="M78.036 16.4494V29.1948H81.6019V16.4494H78.036Z" fill="white"/>
<path fill-rule="evenodd" clip-rule="evenodd" d="M91.4008 12.3295V29.1948H95.1675V23.5329H101.47C102.676 23.5329 103.781 23.2839 104.785 22.786C105.79 22.272 106.585 21.5813 107.171 20.714C107.773 19.8305 108.075 18.8427 108.075 17.7505C108.075 16.7225 107.798 15.7989 107.246 14.9797C106.694 14.1606 105.957 13.5181 105.036 13.0523C104.115 12.5704 103.094 12.3295 101.973 12.3295H91.4008ZM100.843 20.2803H95.1172V15.5821H100.843C101.429 15.5821 101.964 15.6784 102.45 15.8712C102.952 16.0479 103.345 16.3049 103.63 16.6422C103.931 16.9634 104.082 17.3409 104.082 17.7746C104.082 18.2404 103.931 18.666 103.63 19.0515C103.345 19.437 102.952 19.7422 102.45 19.9671C101.964 20.1759 101.429 20.2803 100.843 20.2803Z" fill="white"/>
<path d="M115.801 12.3295V29.1948H131.37V26.0145H119.467V22.1355H129.989V19.0515H119.467V15.5098H131.194V12.3295H115.801Z" fill="white"/>
<path d="M147.138 22.9944L152.823 29.1948H157.72L149.812 20.8044L157.444 12.3295H152.698L147.588 18.4128L142 12.3295H137.129L144.875 20.5538L137.003 29.1948H141.724L147.138 22.9944Z" fill="white"/>
<path d="M136.63 12.2963H142.018L149.61 20.6608L141.764 29.583H136.533L144.573 20.7537L136.63 12.2963Z" fill="#FFBB00"/>
<path fill-rule="evenodd" clip-rule="evenodd" d="M42.8174 11.8305L21.4109 0L0 11.8305V35.4914L21.4109 47.3219L42.8174 35.4914V11.8305ZM38.2178 12.6549L22.8974 21.1208V4.189L38.2178 12.6549ZM24.4277 23.6609L39.7481 15.1951V32.1268L24.4277 23.6609ZM19.8369 21.1208L4.51653 12.6549L19.8369 4.189V21.1208ZM4.51653 34.6628L19.8369 26.1969V43.1287L4.51653 34.6628ZM22.8974 26.1969L38.2178 34.6628L22.8974 43.1287V26.1969ZM18.3066 23.6609L2.98624 32.1268V15.1951L18.3066 23.6609Z" fill="white"/>
<path d="M54.2776 46.6523V45.3295C54.2776 44.4235 54.4345 43.6987 54.7485 43.1551C55.0745 42.6115 55.5212 42.1766 56.0886 41.8505C56.6682 41.5122 57.3564 41.2223 58.1532 40.9807L59.1493 40.6727C59.6926 40.5036 60.1695 40.2982 60.58 40.0566C60.9906 39.8029 61.3105 39.4888 61.5399 39.1144C61.7693 38.7278 61.884 38.2567 61.884 37.701V37.6285C61.884 36.8312 61.6063 36.2031 61.0509 35.744C60.4955 35.2729 59.7832 35.0374 58.9139 35.0374C57.9963 35.0374 57.2477 35.285 56.6682 35.7803C56.0886 36.2635 55.7989 37.0004 55.7989 37.9909V38.2446H54.35V38.009C54.35 37.091 54.5492 36.3118 54.9477 35.6716C55.3461 35.0313 55.8894 34.5481 56.5776 34.222C57.2658 33.8837 58.0446 33.7146 58.9139 33.7146C59.7832 33.7146 60.5499 33.8777 61.2139 34.2038C61.89 34.53 62.4152 34.983 62.7895 35.5628C63.1638 36.1427 63.351 36.8192 63.351 37.5923V37.7554C63.351 38.5768 63.188 39.2593 62.862 39.8029C62.536 40.3344 62.0832 40.7693 61.5037 41.1076C60.9362 41.4458 60.2661 41.7357 59.4934 41.9773L58.5155 42.2854C57.8997 42.4786 57.3866 42.684 56.9761 42.9014C56.5776 43.1068 56.2758 43.3726 56.0705 43.6987C55.8653 44.0249 55.7627 44.4658 55.7627 45.0215V45.3295H63.2423V46.6523H54.2776Z" fill="white"/>
<path d="M70.0254 46.906C68.5886 46.906 67.4416 46.4832 66.5844 45.6376C65.7392 44.7799 65.3167 43.4994 65.3167 41.7961V38.8244C65.3167 37.1332 65.7392 35.8588 66.5844 35.0011C67.4416 34.1434 68.5886 33.7146 70.0254 33.7146C71.4742 33.7146 72.6212 34.1434 73.4664 35.0011C74.3236 35.8588 74.7522 37.1332 74.7522 38.8244V41.7961C74.7522 43.4994 74.3236 44.7799 73.4664 45.6376C72.6212 46.4832 71.4742 46.906 70.0254 46.906ZM70.0254 45.5832C71.112 45.5832 71.927 45.257 72.4703 44.6047C73.0136 43.9524 73.2853 43.0404 73.2853 41.8686V38.7338C73.2853 37.5621 73.0076 36.6561 72.4522 36.0158C71.8968 35.3635 71.0879 35.0374 70.0254 35.0374C68.9629 35.0374 68.154 35.3635 67.5986 36.0158C67.0553 36.6682 66.7836 37.5742 66.7836 38.7338V41.8686C66.7836 43.0524 67.0553 43.9705 67.5986 44.6228C68.1419 45.2631 68.9508 45.5832 70.0254 45.5832Z" fill="white"/>
<path d="M76.7919 46.6523V45.3295C76.7919 44.4235 76.9489 43.6987 77.2628 43.1551C77.5888 42.6115 78.0355 42.1766 78.603 41.8505C79.1825 41.5122 79.8707 41.2223 80.6676 40.9807L81.6637 40.6727C82.207 40.5036 82.6839 40.2982 83.0944 40.0566C83.5049 39.8029 83.8249 39.4888 84.0543 39.1144C84.2837 38.7278 84.3984 38.2567 84.3984 37.701V37.6285C84.3984 36.8312 84.1207 36.2031 83.5653 35.744C83.0099 35.2729 82.2975 35.0374 81.4282 35.0374C80.5106 35.0374 79.7621 35.285 79.1825 35.7803C78.603 36.2635 78.3132 37.0004 78.3132 37.9909V38.2446H76.8644V38.009C76.8644 37.091 77.0636 36.3118 77.462 35.6716C77.8605 35.0313 78.4038 34.5481 79.092 34.222C79.7802 33.8837 80.5589 33.7146 81.4282 33.7146C82.2975 33.7146 83.0642 33.8777 83.7283 34.2038C84.4044 34.53 84.9296 34.983 85.3039 35.5628C85.6782 36.1427 85.8653 36.8192 85.8653 37.5923V37.7554C85.8653 38.5768 85.7023 39.2593 85.3763 39.8029C85.0503 40.3344 84.5976 40.7693 84.018 41.1076C83.4506 41.4458 82.7805 41.7357 82.0078 41.9773L81.0298 42.2854C80.414 42.4786 79.9009 42.684 79.4904 42.9014C79.092 43.1068 78.7901 43.3726 78.5849 43.6987C78.3796 44.0249 78.277 44.4658 78.277 45.0215V45.3295H85.7566V46.6523H76.7919Z" fill="white"/>
<path d="M92.2138 46.906C91.2841 46.906 90.4812 46.7308 89.8051 46.3805C89.1289 46.0181 88.6037 45.5228 88.2294 44.8946C87.8552 44.2544 87.668 43.5175 87.668 42.684V42.4666H89.135V42.6296C89.135 43.584 89.4127 44.3148 89.9681 44.8222C90.5234 45.3295 91.2599 45.5832 92.1775 45.5832C93.1434 45.5832 93.898 45.3114 94.4413 44.7678C94.9847 44.2242 95.2563 43.4813 95.2563 42.539V42.376C95.2563 41.47 94.9907 40.7512 94.4595 40.2197C93.9403 39.6761 93.2642 39.4043 92.4311 39.4043C91.9481 39.4043 91.5497 39.4828 91.2358 39.6398C90.9219 39.7848 90.6744 39.972 90.4933 40.2016C90.3121 40.419 90.1612 40.6304 90.0405 40.8358H88.0483V33.9683H96.3792V35.291H89.5153V39.6761H89.7688C89.9016 39.4345 90.0828 39.1989 90.3122 38.9694C90.5536 38.7399 90.8736 38.5466 91.272 38.3896C91.6704 38.2325 92.1655 38.154 92.7571 38.154C93.4936 38.154 94.1576 38.3231 94.7492 38.6614C95.3529 38.9996 95.8298 39.4828 96.18 40.111C96.5422 40.7391 96.7233 41.4881 96.7233 42.3578V42.5572C96.7233 43.4148 96.5422 44.1698 96.18 44.8222C95.8177 45.4745 95.2986 45.9879 94.6225 46.3624C93.9463 46.7248 93.1434 46.906 92.2138 46.906Z" fill="white"/>
</svg>
