<svg width="165" height="50" viewBox="0 0 165 50" fill="none" xmlns="http://www.w3.org/2000/svg">
<path fill-rule="evenodd" clip-rule="evenodd" d="M81.2072 13.0165L83.8074 15.5113L86.4076 13.0165L83.8074 10.5217L81.2072 13.0165Z" fill="#2C3B8E"/>
<path d="M57.2003 13.0721V30.6346H61.1227V23.9107H71.6086V20.6742H61.1227V16.4592H72.7069V13.0721H57.2003Z" fill="#2C3B8E"/>
<path d="M82.022 17.3624V30.6346H85.7352V17.3624H82.022Z" fill="#2C3B8E"/>
<path fill-rule="evenodd" clip-rule="evenodd" d="M95.9391 13.0721V30.6346H99.8615V24.7387H106.425C107.68 24.7387 108.831 24.4794 109.877 23.9609C110.923 23.4257 111.751 22.7064 112.361 21.8032C112.989 20.8833 113.302 19.8546 113.302 18.7172C113.302 17.6468 113.015 16.685 112.439 15.832C111.864 14.9789 111.097 14.3099 110.138 13.8248C109.179 13.323 108.116 13.0721 106.948 13.0721H95.9391ZM105.771 21.3516H99.8092V16.4592H105.771C106.381 16.4592 106.939 16.5596 107.445 16.7603C107.968 16.9443 108.378 17.2119 108.674 17.5631C108.988 17.8976 109.145 18.2907 109.145 18.7423C109.145 19.2274 108.988 19.6706 108.674 20.0721C108.378 20.4735 107.968 20.7913 107.445 21.0254C106.939 21.2429 106.381 21.3516 105.771 21.3516Z" fill="#2C3B8E"/>
<path d="M121.348 13.0721V30.6346H137.561V27.3229H125.166V23.2835H136.122V20.0721H125.166V16.3839H137.377V13.0721H121.348Z" fill="#2C3B8E"/>
<path d="M153.981 24.1779L159.901 30.6346H165L156.765 21.8974L164.712 13.0721H159.77L154.448 19.4069L148.63 13.0721H143.558L151.624 21.6365L143.427 30.6346H148.343L153.981 24.1779Z" fill="#2C3B8E"/>
<path d="M143.04 13.0375H148.651L156.557 21.7478L148.386 31.0388H142.939L151.312 21.8446L143.04 13.0375Z" fill="#FFBB00"/>
<path fill-rule="evenodd" clip-rule="evenodd" d="M45.3485 12.5514L23.0571 0.231934L0.76123 12.5514V37.1904L23.0571 49.5099L45.3485 37.1904V12.5514ZM40.5588 13.4099L24.6052 22.2257V4.59409L40.5588 13.4099ZM26.1987 24.8709L42.1523 16.0551V33.6867L26.1987 24.8709ZM21.4181 22.2257L5.46445 13.4099L21.4181 4.59409V22.2257ZM5.46445 36.3276L21.4181 27.5117V45.1434L5.46445 36.3276ZM24.6052 27.5117L40.5588 36.3276L24.6052 45.1434V27.5117ZM19.8245 24.8709L3.87091 33.6867V16.0551L19.8245 24.8709Z" fill="#2C3B8E"/>
<path d="M57.2822 48.8117V47.4343C57.2822 46.4908 57.4457 45.7361 57.7726 45.17C58.112 44.6039 58.5772 44.1511 59.1681 43.8114C59.7716 43.4592 60.4883 43.1573 61.3181 42.9057L62.3553 42.5849C62.9211 42.4088 63.4177 42.195 63.8452 41.9434C64.2727 41.6792 64.6059 41.3522 64.8447 40.9622C65.0836 40.5597 65.2031 40.0691 65.2031 39.4904V39.4149C65.2031 38.5847 64.9139 37.9306 64.3355 37.4526C63.7572 36.962 63.0154 36.7167 62.1102 36.7167C61.1546 36.7167 60.3751 36.9745 59.7716 37.4903C59.1681 37.9935 58.8664 38.7608 58.8664 39.7923V40.0565H57.3577V39.8112C57.3577 38.8552 57.5651 38.0438 57.98 37.3771C58.3949 36.7104 58.9607 36.2072 59.6773 35.8676C60.394 35.5153 61.2049 35.3392 62.1102 35.3392C63.0154 35.3392 63.8138 35.5091 64.5053 35.8487C65.2094 36.1883 65.7563 36.6601 66.146 37.2639C66.5358 37.8677 66.7307 38.5721 66.7307 39.3772V39.547C66.7307 40.4024 66.5609 41.1132 66.2215 41.6792C65.882 42.2327 65.4105 42.6856 64.807 43.0378C64.2161 43.39 63.5183 43.6919 62.7137 43.9435L61.6953 44.2643C61.0541 44.4655 60.5197 44.6794 60.0922 44.9058C59.6773 45.1197 59.363 45.3964 59.1493 45.7361C58.9355 46.0757 58.8287 46.5349 58.8287 47.1135V47.4343H66.6175V48.8117H57.2822Z" fill="#2C3B8E"/>
<path d="M73.681 49.0759C72.1848 49.0759 70.9904 48.6356 70.0978 47.755C69.2177 46.8619 68.7776 45.5285 68.7776 43.7548V40.6603C68.7776 38.8992 69.2177 37.5721 70.0978 36.6789C70.9904 35.7858 72.1848 35.3392 73.681 35.3392C75.1897 35.3392 76.3841 35.7858 77.2642 36.6789C78.1569 37.5721 78.6032 38.8992 78.6032 40.6603V43.7548C78.6032 45.5285 78.1569 46.8619 77.2642 47.755C76.3841 48.6356 75.1897 49.0759 73.681 49.0759ZM73.681 47.6984C74.8125 47.6984 75.6612 47.3588 76.227 46.6795C76.7928 46.0002 77.0756 45.0505 77.0756 43.8303V40.566C77.0756 39.3458 76.7865 38.4023 76.2081 37.7356C75.6298 37.0563 74.7874 36.7167 73.681 36.7167C72.5746 36.7167 71.7322 37.0563 71.1539 37.7356C70.5881 38.4149 70.3052 39.3583 70.3052 40.566V43.8303C70.3052 45.0631 70.5881 46.0191 71.1539 46.6984C71.7196 47.3651 72.562 47.6984 73.681 47.6984Z" fill="#2C3B8E"/>
<path d="M80.7272 48.8117V47.4343C80.7272 46.4908 80.8907 45.7361 81.2176 45.17C81.557 44.6039 82.0222 44.1511 82.6132 43.8114C83.2166 43.4592 83.9333 43.1573 84.7631 42.9057L85.8004 42.5849C86.3661 42.4088 86.8627 42.195 87.2902 41.9434C87.7177 41.6792 88.0509 41.3522 88.2898 40.9622C88.5286 40.5597 88.6481 40.0691 88.6481 39.4904V39.4149C88.6481 38.5847 88.3589 37.9306 87.7806 37.4526C87.2022 36.962 86.4604 36.7167 85.5552 36.7167C84.5997 36.7167 83.8201 36.9745 83.2166 37.4903C82.6132 37.9935 82.3114 38.7608 82.3114 39.7923V40.0565H80.8027V39.8112C80.8027 38.8552 81.0101 38.0438 81.425 37.3771C81.8399 36.7104 82.4057 36.2072 83.1224 35.8676C83.839 35.5153 84.6499 35.3392 85.5552 35.3392C86.4604 35.3392 87.2588 35.5091 87.9503 35.8487C88.6544 36.1883 89.2013 36.6601 89.591 37.2639C89.9808 37.8677 90.1757 38.5721 90.1757 39.3772V39.547C90.1757 40.4024 90.0059 41.1132 89.6665 41.6792C89.327 42.2327 88.8555 42.6856 88.252 43.0378C87.6611 43.39 86.9633 43.6919 86.1587 43.9435L85.1403 44.2643C84.4991 44.4655 83.9647 44.6794 83.5373 44.9058C83.1224 45.1197 82.808 45.3964 82.5943 45.7361C82.3806 46.0757 82.2737 46.5349 82.2737 47.1135V47.4343H90.0625V48.8117H80.7272Z" fill="#2C3B8E"/>
<path d="M96.7865 49.0759C95.8184 49.0759 94.9823 48.8935 94.2783 48.5287C93.5742 48.1513 93.0273 47.6355 92.6375 46.9814C92.2478 46.3147 92.0529 45.5474 92.0529 44.6794V44.453H93.5805V44.6228C93.5805 45.6166 93.8697 46.3776 94.448 46.9059C95.0264 47.4343 95.7933 47.6984 96.7488 47.6984C97.7546 47.6984 98.5404 47.4154 99.1062 46.8493C99.672 46.2833 99.9549 45.5096 99.9549 44.5284V44.3586C99.9549 43.4152 99.6783 42.6667 99.1251 42.1132C98.5844 41.5471 97.8804 41.2641 97.0128 41.2641C96.5099 41.2641 96.095 41.3459 95.7682 41.5094C95.4413 41.6604 95.1835 41.8553 94.9949 42.0943C94.8063 42.3208 94.6492 42.5409 94.5234 42.7548H92.4489V35.6034H101.124V36.9808H93.9765V41.5471H94.2406C94.3789 41.2956 94.5674 41.0503 94.8063 40.8112C95.0578 40.5722 95.391 40.371 95.8059 40.2074C96.2208 40.0439 96.7362 39.9621 97.3523 39.9621C98.1193 39.9621 98.8108 40.1383 99.4268 40.4905C100.055 40.8427 100.552 41.3459 100.917 42C101.294 42.6541 101.482 43.434 101.482 44.3398V44.5473C101.482 45.4404 101.294 46.2267 100.917 46.9059C100.54 47.5852 99.9989 48.1198 99.2948 48.5098C98.5907 48.8872 97.7546 49.0759 96.7865 49.0759Z" fill="#2C3B8E"/>
</svg>
